<mxfile host="drawio-plugin" modified="2024-01-16T18:10:42.615Z" agent="5.0 (Windows NT 10.0; Win64; x64) AppleWebKit/537.36 (KHTML, like Gecko) Chrome/111.0.0.0 Safari/537.36" etag="w2fr6Zbw2EwCWGMdWETu" version="20.5.3" type="embed"><diagram name="Seite-1" id="0b6pMwF9IUobV9L8IJvM"><mxGraphModel dx="1401" dy="382" grid="1" gridSize="10" guides="1" tooltips="1" connect="1" arrows="1" fold="1" page="1" pageScale="1" pageWidth="827" pageHeight="1169" math="0" shadow="0"><root><mxCell id="0"/><mxCell id="1" parent="0"/><mxCell id="sJlbb0pxyKYqOGSmCHa1-80" value="User" style="rounded=1;whiteSpace=wrap;html=1;" parent="1" vertex="1"><mxGeometry x="-250" y="410" width="120" height="60" as="geometry"/></mxCell><mxCell id="sJlbb0pxyKYqOGSmCHa1-81" value="AdminUser" style="rounded=1;whiteSpace=wrap;html=1;" parent="1" vertex="1"><mxGeometry x="320" y="410" width="120" height="60" as="geometry"/></mxCell><mxCell id="sJlbb0pxyKYqOGSmCHa1-82" value="Subject" style="rounded=1;whiteSpace=wrap;html=1;" parent="1" vertex="1"><mxGeometry x="130" y="410" width="120" height="60" as="geometry"/></mxCell><mxCell id="sJlbb0pxyKYqOGSmCHa1-83" value="Task" style="rounded=1;whiteSpace=wrap;html=1;" parent="1" vertex="1"><mxGeometry x="130" y="680" width="120" height="60" as="geometry"/></mxCell><mxCell id="sJlbb0pxyKYqOGSmCHa1-84" value="Profile" style="rounded=1;whiteSpace=wrap;html=1;" parent="1" vertex="1"><mxGeometry x="130" y="270" width="120" height="60" as="geometry"/></mxCell><mxCell id="sJlbb0pxyKYqOGSmCHa1-85" value="Exercise" style="rounded=1;whiteSpace=wrap;html=1;" parent="1" vertex="1"><mxGeometry x="130" y="560" width="120" height="60" as="geometry"/></mxCell><mxCell id="sJlbb0pxyKYqOGSmCHa1-86" value="" style="edgeStyle=orthogonalEdgeStyle;fontSize=12;html=1;endArrow=ERzeroToMany;startArrow=ERzeroToOne;rounded=0;entryX=0.5;entryY=0;entryDx=0;entryDy=0;exitX=0.25;exitY=1;exitDx=0;exitDy=0;" parent="1" source="sJlbb0pxyKYqOGSmCHa1-84" target="sJlbb0pxyKYqOGSmCHa1-80" edge="1"><mxGeometry width="100" height="100" relative="1" as="geometry"><mxPoint x="220" y="320" as="sourcePoint"/><mxPoint x="320" y="220" as="targetPoint"/></mxGeometry></mxCell><mxCell id="sJlbb0pxyKYqOGSmCHa1-88" value="" style="edgeStyle=orthogonalEdgeStyle;fontSize=12;html=1;endArrow=ERzeroToMany;startArrow=ERzeroToOne;rounded=0;exitX=0.75;exitY=1;exitDx=0;exitDy=0;entryX=0.5;entryY=0;entryDx=0;entryDy=0;" parent="1" source="sJlbb0pxyKYqOGSmCHa1-84" target="sJlbb0pxyKYqOGSmCHa1-81" edge="1"><mxGeometry width="100" height="100" relative="1" as="geometry"><mxPoint x="220" y="280" as="sourcePoint"/><mxPoint x="320" y="180" as="targetPoint"/></mxGeometry></mxCell><mxCell id="sJlbb0pxyKYqOGSmCHa1-89" value="" style="edgeStyle=orthogonalEdgeStyle;fontSize=12;html=1;endArrow=ERzeroToMany;startArrow=ERzeroToOne;rounded=0;exitX=0.5;exitY=1;exitDx=0;exitDy=0;entryX=0.5;entryY=0;entryDx=0;entryDy=0;" parent="1" source="sJlbb0pxyKYqOGSmCHa1-84" target="sJlbb0pxyKYqOGSmCHa1-82" edge="1"><mxGeometry width="100" height="100" relative="1" as="geometry"><mxPoint x="160" y="400" as="sourcePoint"/><mxPoint x="260" y="300" as="targetPoint"/></mxGeometry></mxCell><mxCell id="sJlbb0pxyKYqOGSmCHa1-90" value="" style="edgeStyle=orthogonalEdgeStyle;fontSize=12;html=1;endArrow=ERzeroToMany;startArrow=ERzeroToOne;rounded=0;exitX=0.5;exitY=1;exitDx=0;exitDy=0;entryX=0.5;entryY=0;entryDx=0;entryDy=0;" parent="1" source="sJlbb0pxyKYqOGSmCHa1-82" target="sJlbb0pxyKYqOGSmCHa1-85" edge="1"><mxGeometry width="100" height="100" relative="1" as="geometry"><mxPoint x="130" y="520" as="sourcePoint"/><mxPoint x="230" y="420" as="targetPoint"/></mxGeometry></mxCell><mxCell id="sJlbb0pxyKYqOGSmCHa1-91" value="" style="edgeStyle=orthogonalEdgeStyle;fontSize=12;html=1;endArrow=ERzeroToMany;startArrow=ERzeroToOne;rounded=0;exitX=0.5;exitY=1;exitDx=0;exitDy=0;entryX=0.5;entryY=0;entryDx=0;entryDy=0;" parent="1" source="sJlbb0pxyKYqOGSmCHa1-85" target="sJlbb0pxyKYqOGSmCHa1-83" edge="1"><mxGeometry width="100" height="100" relative="1" as="geometry"><mxPoint x="200" y="480" as="sourcePoint"/><mxPoint x="200" y="570" as="targetPoint"/></mxGeometry></mxCell><mxCell id="sJlbb0pxyKYqOGSmCHa1-92" value="Membership" style="rounded=1;whiteSpace=wrap;html=1;" parent="1" vertex="1"><mxGeometry x="-60" y="410" width="120" height="60" as="geometry"/></mxCell><mxCell id="sJlbb0pxyKYqOGSmCHa1-93" value="" style="edgeStyle=orthogonalEdgeStyle;fontSize=12;html=1;endArrow=ERzeroToMany;startArrow=ERmandOne;rounded=0;exitX=1;exitY=0.5;exitDx=0;exitDy=0;endFill=0;" parent="1" source="sJlbb0pxyKYqOGSmCHa1-80" edge="1"><mxGeometry width="100" height="100" relative="1" as="geometry"><mxPoint x="80" y="530" as="sourcePoint"/><mxPoint x="-60" y="440" as="targetPoint"/></mxGeometry></mxCell><mxCell id="sJlbb0pxyKYqOGSmCHa1-94" value="" style="edgeStyle=orthogonalEdgeStyle;fontSize=12;html=1;endArrow=ERzeroToMany;startArrow=ERmandOne;rounded=0;exitX=0;exitY=0.5;exitDx=0;exitDy=0;endFill=0;entryX=1;entryY=0.5;entryDx=0;entryDy=0;" parent="1" source="sJlbb0pxyKYqOGSmCHa1-82" target="sJlbb0pxyKYqOGSmCHa1-92" edge="1"><mxGeometry width="100" height="100" relative="1" as="geometry"><mxPoint x="-120" y="450" as="sourcePoint"/><mxPoint x="-50" y="450" as="targetPoint"/></mxGeometry></mxCell><mxCell id="2" value="Attachment" style="rounded=1;whiteSpace=wrap;html=1;" parent="1" vertex="1"><mxGeometry x="20" y="800" width="120" height="60" as="geometry"/></mxCell><mxCell id="3" value="Instruction" style="rounded=1;whiteSpace=wrap;html=1;" parent="1" vertex="1"><mxGeometry x="240" y="800" width="120" height="60" as="geometry"/></mxCell><mxCell id="4" value="File" style="rounded=1;whiteSpace=wrap;html=1;" parent="1" vertex="1"><mxGeometry x="130" y="920" width="120" height="60" as="geometry"/></mxCell><mxCell id="6" value="" style="edgeStyle=orthogonalEdgeStyle;fontSize=12;html=1;endArrow=ERzeroToMany;startArrow=ERmandOne;rounded=0;exitX=0.25;exitY=1;exitDx=0;exitDy=0;entryX=0.5;entryY=0;entryDx=0;entryDy=0;" parent="1" source="sJlbb0pxyKYqOGSmCHa1-83" target="2" edge="1"><mxGeometry width="100" height="100" relative="1" as="geometry"><mxPoint x="250" y="850" as="sourcePoint"/><mxPoint x="60" y="790" as="targetPoint"/></mxGeometry></mxCell><mxCell id="7" value="" style="edgeStyle=orthogonalEdgeStyle;fontSize=12;html=1;endArrow=ERzeroToMany;startArrow=ERmandOne;rounded=0;exitX=0.75;exitY=1;exitDx=0;exitDy=0;entryX=0.5;entryY=0;entryDx=0;entryDy=0;" parent="1" source="sJlbb0pxyKYqOGSmCHa1-83" target="3" edge="1"><mxGeometry width="100" height="100" relative="1" as="geometry"><mxPoint x="170" y="750" as="sourcePoint"/><mxPoint x="90" y="810" as="targetPoint"/></mxGeometry></mxCell><mxCell id="8" value="" style="edgeStyle=orthogonalEdgeStyle;fontSize=12;html=1;endArrow=ERzeroToOne;startArrow=ERmandOne;rounded=0;entryX=0.5;entryY=1;entryDx=0;entryDy=0;exitX=0.75;exitY=0;exitDx=0;exitDy=0;" parent="1" source="4" target="3" edge="1"><mxGeometry width="100" height="100" relative="1" as="geometry"><mxPoint x="160" y="900" as="sourcePoint"/><mxPoint x="260" y="800" as="targetPoint"/></mxGeometry></mxCell><mxCell id="9" value="" style="edgeStyle=orthogonalEdgeStyle;fontSize=12;html=1;endArrow=ERzeroToOne;startArrow=ERmandOne;rounded=0;entryX=0.5;entryY=1;entryDx=0;entryDy=0;exitX=0.25;exitY=0;exitDx=0;exitDy=0;" parent="1" source="4" target="2" edge="1"><mxGeometry width="100" height="100" relative="1" as="geometry"><mxPoint x="230" y="930" as="sourcePoint"/><mxPoint x="310" y="870" as="targetPoint"/></mxGeometry></mxCell><mxCell id="10" value="Submissions" style="rounded=1;whiteSpace=wrap;html=1;" parent="1" vertex="1"><mxGeometry x="-200" y="800" width="120" height="60" as="geometry"/></mxCell><mxCell id="11" value="" style="edgeStyle=orthogonalEdgeStyle;fontSize=12;html=1;endArrow=ERzeroToMany;startArrow=ERmandOne;rounded=0;exitX=0;exitY=0.5;exitDx=0;exitDy=0;entryX=0.75;entryY=0;entryDx=0;entryDy=0;" parent="1" source="sJlbb0pxyKYqOGSmCHa1-83" target="10" edge="1"><mxGeometry width="100" height="100" relative="1" as="geometry"><mxPoint x="170" y="750" as="sourcePoint"/><mxPoint x="90" y="810" as="targetPoint"/></mxGeometry></mxCell><mxCell id="12" value="" style="edgeStyle=orthogonalEdgeStyle;fontSize=12;html=1;endArrow=ERzeroToMany;startArrow=ERmandOne;rounded=0;exitX=0.5;exitY=1;exitDx=0;exitDy=0;entryX=0.25;entryY=0;entryDx=0;entryDy=0;" parent="1" source="sJlbb0pxyKYqOGSmCHa1-80" target="10" edge="1"><mxGeometry width="100" height="100" relative="1" as="geometry"><mxPoint x="140" y="720" as="sourcePoint"/><mxPoint x="-130" y="810" as="targetPoint"/></mxGeometry></mxCell><mxCell id="14" value="" style="edgeStyle=orthogonalEdgeStyle;fontSize=12;html=1;endArrow=ERzeroToOne;startArrow=ERmandOne;rounded=0;entryX=0.75;entryY=1;entryDx=0;entryDy=0;exitX=0;exitY=0.5;exitDx=0;exitDy=0;" parent="1" source="4" target="10" edge="1"><mxGeometry width="100" height="100" relative="1" as="geometry"><mxPoint x="170" y="930" as="sourcePoint"/><mxPoint x="90" y="870" as="targetPoint"/></mxGeometry></mxCell><mxCell id="15" value="ExecutionResult" style="rounded=1;whiteSpace=wrap;html=1;" parent="1" vertex="1"><mxGeometry x="-450" y="930" width="120" height="60" as="geometry"/></mxCell><mxCell id="16" value="EvaluationResult" style="rounded=1;whiteSpace=wrap;html=1;" parent="1" vertex="1"><mxGeometry x="-450" y="680" width="120" height="60" as="geometry"/></mxCell><mxCell id="19" value="" style="edgeStyle=orthogonalEdgeStyle;fontSize=12;html=1;endArrow=ERzeroToOne;startArrow=ERmandOne;rounded=0;entryX=0.75;entryY=0;entryDx=0;entryDy=0;exitX=0;exitY=0.75;exitDx=0;exitDy=0;" parent="1" source="10" target="15" edge="1"><mxGeometry width="100" height="100" relative="1" as="geometry"><mxPoint x="-200" y="900" as="sourcePoint"/><mxPoint x="-210" y="930" as="targetPoint"/></mxGeometry></mxCell><mxCell id="20" value="" style="edgeStyle=orthogonalEdgeStyle;fontSize=12;html=1;endArrow=ERzeroToOne;startArrow=ERmandOne;rounded=0;entryX=0.75;entryY=1;entryDx=0;entryDy=0;exitX=0;exitY=0.25;exitDx=0;exitDy=0;" parent="1" source="10" target="16" edge="1"><mxGeometry width="100" height="100" relative="1" as="geometry"><mxPoint x="-210" y="825" as="sourcePoint"/><mxPoint x="-370" y="790" as="targetPoint"/></mxGeometry></mxCell><mxCell id="21" value="TestCase" style="rounded=1;whiteSpace=wrap;html=1;" parent="1" vertex="1"><mxGeometry x="460" y="800" width="120" height="60" as="geometry"/></mxCell><mxCell id="22" value="" style="edgeStyle=orthogonalEdgeStyle;fontSize=12;html=1;endArrow=ERzeroToMany;startArrow=ERmandOne;rounded=0;entryX=0.5;entryY=0;entryDx=0;entryDy=0;exitX=1;exitY=0.5;exitDx=0;exitDy=0;" parent="1" source="sJlbb0pxyKYqOGSmCHa1-83" target="21" edge="1"><mxGeometry width="100" height="100" relative="1" as="geometry"><mxPoint x="480" y="660" as="sourcePoint"/><mxPoint x="300" y="820" as="targetPoint"/></mxGeometry></mxCell><mxCell id="24" value="" style="edgeStyle=orthogonalEdgeStyle;fontSize=12;html=1;endArrow=ERzeroToOne;startArrow=ERmandOne;rounded=0;entryX=0.25;entryY=1;entryDx=0;entryDy=0;exitX=1;exitY=0.25;exitDx=0;exitDy=0;" parent="1" source="4" target="21" edge="1"><mxGeometry width="100" height="100" relative="1" as="geometry"><mxPoint x="290" y="920" as="sourcePoint"/><mxPoint x="300" y="840" as="targetPoint"/></mxGeometry></mxCell><mxCell id="26" value="output_file" style="edgeLabel;html=1;align=center;verticalAlign=middle;resizable=0;points=[];" parent="24" vertex="1" connectable="0"><mxGeometry x="0.0064" relative="1" as="geometry"><mxPoint as="offset"/></mxGeometry></mxCell><mxCell id="25" value="" style="edgeStyle=orthogonalEdgeStyle;fontSize=12;html=1;endArrow=ERzeroToOne;startArrow=ERmandOne;rounded=0;endFill=1;exitX=1;exitY=0.75;exitDx=0;exitDy=0;entryX=0.5;entryY=1;entryDx=0;entryDy=0;startFill=0;" parent="1" source="4" target="21" edge="1"><mxGeometry width="100" height="100" relative="1" as="geometry"><mxPoint x="300" y="970" as="sourcePoint"/><mxPoint x="570" y="890" as="targetPoint"/></mxGeometry></mxCell><mxCell id="27" value="input_file" style="edgeLabel;html=1;align=center;verticalAlign=middle;resizable=0;points=[];" parent="25" vertex="1" connectable="0"><mxGeometry x="-0.13" y="3" relative="1" as="geometry"><mxPoint as="offset"/></mxGeometry></mxCell><mxCell id="33" value="" style="edgeStyle=orthogonalEdgeStyle;fontSize=12;html=1;endArrow=ERzeroToMany;startArrow=ERmandOne;rounded=0;exitX=0.75;exitY=1;exitDx=0;exitDy=0;entryX=0.5;entryY=1;entryDx=0;entryDy=0;" parent="1" source="21" target="15" edge="1"><mxGeometry width="100" height="100" relative="1" as="geometry"><mxPoint x="-20.03" y="1090" as="sourcePoint"/><mxPoint x="59.97" y="1150" as="targetPoint"/><Array as="points"><mxPoint x="550" y="1020"/><mxPoint x="-390" y="1020"/></Array></mxGeometry></mxCell><mxCell id="34" value="AdminType" style="rounded=1;whiteSpace=wrap;html=1;" vertex="1" parent="1"><mxGeometry x="510" y="410" width="120" height="60" as="geometry"/></mxCell><mxCell id="35" value="" style="edgeStyle=entityRelationEdgeStyle;fontSize=12;html=1;endArrow=ERzeroToMany;startArrow=ERmandOne;rounded=0;exitX=0;exitY=0.5;exitDx=0;exitDy=0;entryX=1;entryY=0.5;entryDx=0;entryDy=0;" edge="1" parent="1" source="34" target="sJlbb0pxyKYqOGSmCHa1-81"><mxGeometry width="100" height="100" relative="1" as="geometry"><mxPoint x="380" y="520" as="sourcePoint"/><mxPoint x="480" y="420" as="targetPoint"/></mxGeometry></mxCell><mxCell id="36" value="APIToken" style="rounded=1;whiteSpace=wrap;html=1;" vertex="1" parent="1"><mxGeometry x="-450" y="190" width="120" height="60" as="geometry"/></mxCell></root></mxGraphModel></diagram></mxfile>